<?xml version="1.0" standalone="no"?>
<!DOCTYPE svg PUBLIC "-//W3C//DTD SVG 20010904//EN"
 "http://www.w3.org/TR/2001/REC-SVG-20010904/DTD/svg10.dtd">
<svg version="1.0" xmlns="http://www.w3.org/2000/svg"
 width="977.000000pt" height="977.000000pt" viewBox="0 0 977.000000 977.000000"
 preserveAspectRatio="xMidYMid meet">
<metadata>
Created by potrace 1.14, written by Peter Selinger 2001-2017
</metadata>
<g transform="translate(0.000000,977.000000) scale(0.100000,-0.100000)"
fill="#000000" stroke="none">
<path d="M973 9617 c-193 -171 -258 -262 -306 -436 -32 -118 -29 -368 7 -556
68 -353 135 -562 268 -835 49 -102 90 -192 91 -200 0 -8 -56 -98 -125 -200
-320 -470 -519 -817 -576 -1000 -59 -193 -25 -416 94 -607 62 -99 214 -292
336 -426 83 -92 98 -114 98 -142 0 -19 -7 -141 -16 -272 -9 -131 -13 -269 -9
-307 7 -76 30 -146 49 -146 6 -1 -17 -14 -50 -29 -63 -29 -178 -103 -189 -121
-3 -6 2 -14 12 -18 10 -4 19 -16 19 -27 1 -11 18 -88 37 -171 72 -304 118
-607 137 -904 13 -221 13 -343 -2 -358 -16 -16 -11 -19 68 -45 l69 -22 7 -100
c11 -176 21 -1142 13 -1358 l-7 -207 -133 -80 c-132 -79 -212 -138 -229 -167
-4 -9 -15 -47 -23 -85 -8 -38 -39 -152 -69 -253 -30 -100 -54 -189 -54 -196 0
-8 -24 -50 -53 -94 -52 -78 -147 -239 -147 -250 0 -3 12 -5 28 -5 23 1 34 12
76 83 27 45 124 195 216 332 91 138 183 279 205 314 160 267 530 451 1028 512
141 17 179 11 263 -43 81 -52 88 -65 148 -258 35 -116 86 -309 86 -330 0 -20
-72 2 -118 36 -24 19 -47 34 -52 34 -5 0 -29 18 -54 40 -83 71 -179 73 -351 8
-72 -27 -146 -48 -185 -52 -81 -8 -278 -54 -286 -68 -12 -20 8 -20 118 0 164
30 247 35 388 22 238 -22 528 -83 561 -118 9 -9 29 -71 44 -136 24 -106 26
-125 16 -171 -15 -67 -31 -89 -58 -81 -15 5 -20 16 -21 43 -1 20 -7 43 -14 50
-7 7 -55 17 -106 23 -130 15 -349 -7 -557 -55 -33 -8 -112 -17 -175 -20 -63
-3 -144 -12 -180 -19 -62 -12 -55 -13 185 -19 368 -10 693 -26 749 -37 46 -9
103 -37 94 -46 -2 -2 -60 -9 -129 -15 -68 -6 -131 -15 -139 -20 -8 -5 1658 -9
3843 -9 l3857 0 0 3776 0 3776 -51 136 c-114 304 -224 516 -426 818 -65 96
-148 224 -184 284 -196 319 -331 445 -660 618 -130 69 -198 87 -284 77 -140
-15 -162 -12 -290 42 -238 102 -384 129 -645 120 -168 -6 -554 -53 -683 -83
-62 -15 -69 -15 -85 0 -37 32 -178 88 -284 112 -338 76 -704 32 -1095 -132
-229 -95 -433 -219 -562 -339 -48 -45 -95 -79 -129 -93 -67 -27 -218 -116
-302 -178 -145 -106 -466 -444 -703 -739 -211 -263 -316 -442 -430 -730 -113
-287 -174 -518 -158 -595 8 -40 9 -42 10 -13 1 30 147 337 185 388 26 36 27 9
1 -70 -101 -310 -250 -1411 -259 -1920 -1 -55 -6 -214 -10 -353 -7 -181 -6
-259 2 -275 6 -12 13 -31 15 -42 3 -11 5 9 6 45 11 471 33 690 81 808 22 55
23 47 10 -113 -15 -187 -23 -431 -15 -480 9 -61 31 -60 39 3 3 26 13 104 21
174 9 69 24 155 34 190 l18 63 4 -173 c4 -152 6 -175 22 -187 16 -12 17 -22 6
-131 -27 -290 -12 -738 41 -1244 55 -529 59 -556 85 -616 14 -31 27 -55 29
-53 3 2 0 25 -4 51 -5 26 -14 145 -19 265 -6 120 -13 263 -16 318 -8 142 10
101 29 -70 22 -190 47 -329 117 -665 61 -293 69 -324 101 -399 31 -74 41 -42
46 156 2 98 5 179 7 181 2 2 8 -23 14 -55 7 -32 18 -80 26 -108 89 -309 199
-626 299 -863 l34 -82 -26 -6 c-15 -4 -119 -49 -232 -101 -306 -141 -540 -301
-843 -576 -123 -111 -229 -182 -264 -175 -10 2 -32 61 -65 168 -27 91 -64 194
-81 230 -30 60 -38 68 -112 112 -43 26 -98 50 -121 54 l-41 6 -6 336 c-4 186
-7 515 -7 732 l0 395 42 2 c22 0 66 11 97 23 l56 23 1 141 c1 153 25 360 79
696 51 309 114 651 125 678 20 46 -34 109 -141 163 l-59 29 6 58 c3 31 -1 185
-10 342 -9 157 -16 296 -16 310 0 18 -3 21 -9 11 -10 -16 -41 -8 -41 11 0 8
16 22 35 32 19 10 117 100 218 200 248 244 336 378 397 601 34 123 38 313 11
430 -25 106 -91 243 -160 335 -147 196 -407 390 -628 470 -71 26 -76 36 -42
102 30 59 221 546 258 658 82 250 111 499 77 670 -20 104 -128 330 -234 490
-67 101 -244 301 -256 289 -3 -3 17 -95 44 -204 47 -184 75 -375 56 -375 -5 0
-20 8 -34 19 -36 25 -97 45 -281 92 -213 54 -215 50 -62 -100 101 -99 112
-113 165 -221 31 -63 59 -128 62 -145 5 -26 -15 -60 -152 -265 -189 -284 -243
-360 -254 -360 -12 0 -150 278 -190 380 -32 85 -40 154 -22 201 6 15 46 71 90
125 43 55 86 113 94 129 35 70 97 291 133 475 9 47 25 122 36 168 11 45 17 87
14 92 -12 19 -35 9 -41 -17 -12 -60 -38 -116 -90 -200 -71 -114 -120 -176
-273 -352 l-126 -144 -3 69 c-5 102 15 270 47 397 34 133 101 317 136 369 14
21 25 42 25 48 0 30 -52 -2 -167 -103z m50 -36 c-3 -11 -29 -49 -59 -85 -31
-37 -78 -114 -109 -180 -89 -182 -111 -334 -84 -581 20 -190 103 -576 160
-749 22 -65 38 -121 36 -123 -7 -6 -104 247 -132 342 -130 447 -169 772 -117
966 36 133 116 265 202 334 14 11 43 37 65 57 22 21 41 38 42 38 0 0 -1 -9 -4
-19z m849 -213 c61 -81 68 -106 67 -255 -2 -156 -16 -252 -18 -118 -1 81 -31
227 -70 339 -24 68 -24 66 -12 66 5 0 20 -15 33 -32z m-518 -152 c-3 -14 -10
-26 -15 -26 -4 0 -3 14 3 31 12 36 22 33 12 -5z m416 -261 c14 -8 21 -14 15
-14 -5 0 -21 6 -35 14 -14 8 -20 14 -15 14 6 0 21 -6 35 -14z m-96 -567 c-33
-64 -126 -222 -148 -252 -13 -17 -47 -76 -76 -131 -49 -92 -100 -183 -139
-245 -19 -30 73 44 167 134 34 33 62 57 62 52 0 -4 12 5 28 21 15 16 54 49 87
73 33 24 66 52 73 61 7 10 19 16 27 13 18 -7 -36 -119 -133 -274 -58 -93 -91
-139 -226 -320 -18 -25 -39 -44 -46 -42 -18 4 -70 -18 -70 -30 0 -5 7 -20 16
-33 19 -29 25 -21 -201 -285 -246 -287 -233 -270 -438 -588 -134 -210 -142
-229 -141 -339 0 -54 5 -98 12 -106 7 -8 10 -16 7 -18 -9 -10 17 -85 48 -138
24 -39 75 -89 192 -190 178 -152 275 -219 403 -282 48 -23 108 -59 134 -80 27
-21 57 -41 68 -44 15 -5 59 20 167 92 188 125 300 233 405 393 89 136 135 241
150 350 38 260 -106 516 -596 1060 -184 204 -173 190 -146 183 13 -3 73 -32
134 -63 169 -86 230 -102 268 -68 17 15 24 16 36 6 12 -11 17 -10 25 4 10 15
18 13 90 -13 104 -39 244 -111 316 -164 55 -40 57 -44 57 -86 -1 -24 -6 -46
-13 -49 -8 -4 -8 -14 1 -41 12 -33 11 -38 -11 -63 -17 -20 -21 -32 -14 -44 7
-12 5 -22 -6 -34 -28 -31 -24 -92 10 -146 16 -26 43 -73 59 -104 16 -32 33
-58 37 -58 19 0 61 -172 61 -247 0 -43 -31 -172 -54 -227 -23 -55 -98 -170
-212 -325 -75 -102 -128 -162 -210 -235 -60 -54 -114 -108 -121 -120 -7 -11
-12 -49 -13 -83 0 -57 -2 -63 -31 -85 -18 -13 -56 -46 -85 -74 l-54 -51 0 -81
c0 -82 0 -82 26 -82 14 0 53 7 86 16 33 8 63 13 66 10 10 -11 -67 -36 -108
-36 -69 0 -80 -11 -80 -85 0 -55 -3 -66 -22 -79 -37 -26 -51 -21 -34 12 8 16
22 34 30 41 9 7 14 17 11 21 -3 5 -6 26 -7 48 -1 38 -2 40 -32 36 -43 -5 -88
-14 -98 -20 -5 -3 -19 1 -32 9 -21 14 -25 14 -49 -9 -14 -13 -30 -24 -34 -24
-4 0 -21 -13 -38 -28 -16 -15 -37 -31 -45 -35 -27 -13 -103 -72 -107 -84 -2
-6 13 -24 34 -38 36 -26 33 -26 -29 -2 -20 8 -33 8 -52 -3 -22 -11 -31 -11
-67 5 -42 19 -144 123 -160 162 -10 27 5 317 21 390 14 62 18 54 -118 202
-139 151 -307 376 -357 476 -62 125 -78 202 -72 345 6 138 21 188 117 375 118
232 389 656 675 1060 154 217 390 557 470 678 61 91 77 110 49 55z m-219
-1328 c-8 -23 -15 -59 -15 -80 l0 -37 -62 -11 c-35 -6 -74 -14 -88 -18 -18 -5
2 21 74 94 55 56 101 100 103 98 2 -1 -4 -22 -12 -46z m-19 -213 c-7 -18 -25
-46 -40 -62 -14 -15 -26 -31 -26 -36 0 -4 46 -50 101 -101 l101 -94 5 -70 c4
-48 -4 -139 -25 -289 -17 -121 -33 -276 -36 -345 -3 -69 -7 -132 -10 -140 -3
-8 -7 -49 -9 -91 -4 -65 -9 -81 -36 -119 -17 -24 -31 -51 -31 -61 0 -27 -17
-32 -24 -7 -4 18 -8 20 -18 10 -19 -19 -41 -14 -76 17 -20 19 -32 39 -32 55 0
18 -15 37 -50 67 -48 40 -50 44 -50 93 0 42 -83 531 -155 910 -25 130 -27 124
69 178 137 76 244 116 319 117 l37 1 -14 -33z m4530 0 c202 -33 256 -45 429
-95 165 -48 328 -108 405 -148 l55 -29 -40 -3 c-22 -2 -81 1 -132 7 -124 15
-218 14 -310 -3 -43 -8 -103 -19 -133 -25 -86 -15 -169 -67 -203 -126 -23 -42
-27 -59 -24 -108 3 -47 8 -63 30 -85 25 -24 34 -27 95 -25 37 1 155 15 262 32
211 33 341 39 521 21 196 -20 291 -47 461 -131 42 -21 79 -42 82 -47 2 -4 1
-24 -3 -43 -4 -19 -5 -43 -1 -53 5 -16 10 -11 24 24 l17 43 82 -79 c45 -44
103 -106 128 -139 63 -82 94 -109 115 -101 24 9 14 57 -40 175 -28 64 -42 107
-39 121 6 21 6 21 30 -7 40 -47 88 -125 112 -181 l22 -53 -22 -107 c-41 -204
-228 -773 -304 -921 -14 -28 -25 -63 -25 -78 l1 -28 32 35 c18 19 81 114 140
211 67 111 130 200 168 240 33 35 68 75 77 88 l17 25 7 -40 c19 -107 12 -133
-110 -439 -127 -319 -221 -525 -310 -684 l-36 -66 29 19 c17 10 41 28 53 40
27 24 199 252 258 340 21 32 40 53 42 47 2 -7 -4 -21 -14 -32 -16 -18 -17 -26
-6 -78 16 -75 15 -91 -3 -91 -24 0 -37 -48 -34 -126 2 -49 -1 -77 -10 -88 -9
-11 -12 -30 -8 -61 4 -26 2 -47 -4 -50 -5 -4 -9 -19 -8 -33 4 -56 0 -72 -21
-72 -43 0 -54 -48 -39 -170 4 -33 -2 -71 -10 -66 -5 4 -11 0 -14 -6 -2 -7 -7
1 -11 19 -9 41 -31 60 -50 44 -21 -17 -25 -82 -11 -153 16 -74 13 -87 -6 -26
-13 38 -18 43 -46 44 -53 3 -58 -15 -23 -92 42 -93 38 -112 -7 -34 -35 59 -58
78 -58 48 0 -7 -4 -16 -8 -19 -5 -4 -12 -40 -17 -80 -4 -41 -8 -65 -9 -54 -1
11 -8 34 -15 50 l-14 30 -9 -24 -10 -25 -7 28 c-5 21 -12 27 -29 24 -32 -4
-39 -70 -21 -181 15 -90 13 -107 -12 -107 -19 0 -18 -25 7 -90 l21 -55 -22 20
c-14 13 -23 16 -28 8 -4 -6 -21 -13 -37 -15 -28 -3 -30 -6 -30 -48 0 -25 -4
-53 -9 -63 -8 -17 -11 -16 -32 10 l-24 28 15 -44 c19 -56 20 -54 -15 -46 -23
5 -30 3 -30 -9 0 -8 -10 -16 -22 -18 -15 -2 -24 -11 -26 -25 -2 -15 -8 -20
-19 -16 -21 8 -34 -16 -27 -49 4 -23 3 -27 -10 -22 -12 5 -16 0 -16 -20 0 -14
-5 -26 -11 -26 -8 0 -9 -11 -5 -32 l6 -33 -29 35 c-36 41 -38 30 -11 -47 11
-31 18 -58 16 -61 -2 -2 -7 6 -11 17 -3 11 -16 23 -27 27 -30 9 -50 -19 -37
-53 5 -13 9 -34 9 -45 0 -20 -1 -20 -26 -3 -14 9 -28 14 -32 11 -3 -3 12 -51
32 -106 45 -117 43 -153 -2 -56 -25 53 -36 67 -48 62 -9 -4 -22 0 -28 8 -13
16 -86 31 -86 18 0 -5 7 -29 15 -52 8 -23 15 -44 15 -45 0 -2 -10 -1 -21 2
-24 7 -23 3 12 -91 10 -27 16 -53 12 -59 -3 -5 -18 21 -32 59 -16 43 -33 70
-43 72 -30 6 -67 -30 -74 -70 l-7 -38 -26 23 c-19 15 -40 22 -67 22 -42 0 -46
-7 -30 -70 7 -30 7 -30 -9 -7 -19 25 -28 27 -47 9 -7 -7 -28 -20 -45 -27 -37
-17 -47 -34 -34 -58 8 -14 4 -17 -22 -17 -29 0 -33 -4 -37 -35 -5 -34 -6 -34
-18 -12 -17 30 -30 28 -64 -10 -15 -17 -28 -26 -28 -20 0 15 -73 52 -86 44 -6
-4 -13 -15 -17 -24 -4 -10 -17 -18 -30 -18 -13 0 -36 -11 -50 -24 l-26 -24
-14 21 c-11 17 -18 19 -27 11 -7 -7 -24 -9 -46 -4 -19 5 -37 4 -40 -1 -3 -5
-19 0 -36 13 -29 20 -31 20 -44 4 -12 -17 -15 -17 -43 -3 -18 9 -33 11 -39 5
-5 -5 -19 -5 -35 1 -22 9 -27 8 -27 -5 0 -8 5 -24 10 -35 18 -32 -6 -21 -39
18 -17 21 -29 31 -26 23 3 -9 -5 -20 -21 -27 -24 -11 -26 -10 -40 23 -23 56
-74 38 -74 -28 l0 -23 -19 24 c-10 13 -24 21 -32 19 -8 -3 -25 5 -39 18 -14
12 -32 24 -40 26 -8 2 -19 12 -25 23 -13 25 -41 31 -72 14 -23 -12 -27 -11
-45 14 -23 31 -41 34 -60 10 -18 -25 -49 -25 -66 -2 -8 11 -22 19 -31 17 -10
-2 -37 14 -60 35 -22 20 -48 37 -56 37 -9 0 -21 12 -27 26 -11 23 -31 35 -117
70 -15 6 -31 27 -41 55 -14 33 -23 44 -39 43 -18 0 -24 9 -37 55 -27 98 -33
113 -57 135 -14 13 -30 48 -40 91 -10 39 -27 97 -38 130 -11 33 -34 112 -50
175 -23 86 -39 125 -63 155 -17 22 -40 67 -50 100 -10 33 -24 70 -31 81 -8 12
-21 48 -29 81 -9 33 -23 76 -31 96 -8 20 -20 60 -26 89 -7 29 -20 69 -30 88
-11 19 -19 40 -19 47 0 40 -25 115 -46 138 -13 14 -24 32 -24 39 0 8 -6 19
-14 25 -8 7 -17 28 -21 48 -3 19 -10 43 -15 52 -5 9 -13 34 -19 56 -5 22 -19
78 -31 125 -12 47 -27 105 -33 129 -7 31 -12 39 -17 27 -14 -41 -45 250 -44
419 1 233 16 343 65 489 45 134 89 306 89 349 0 37 16 34 29 -5 11 -32 48 -78
62 -78 5 0 0 18 -10 40 -14 31 -16 51 -10 83 4 23 8 48 9 55 0 22 19 13 35
-18 9 -16 22 -30 30 -30 13 0 13 5 1 38 -27 70 -46 177 -37 208 17 58 35 84
79 119 68 52 142 77 247 82 l90 4 -30 -23 c-35 -26 -95 -89 -95 -99 0 -4 11
-10 25 -13 27 -7 48 -37 39 -59 -7 -18 -48 -37 -81 -37 -26 0 -26 0 -21 -68 6
-81 26 -123 84 -178 l43 -41 -132 -7 c-225 -11 -223 -24 3 -23 224 2 266 -5
508 -85 91 -30 127 -31 87 -2 -11 8 -46 22 -78 31 l-58 17 45 16 c60 23 130
75 160 119 46 67 59 110 54 188 -5 70 -4 71 12 50 10 -12 27 -38 37 -57 13
-22 27 -35 40 -34 19 0 19 -2 -6 -85 -52 -182 -166 -500 -209 -586 -39 -79
-137 -344 -129 -351 2 -2 16 27 32 64 15 37 63 139 105 227 43 88 87 185 98
215 55 145 170 480 180 525 16 77 32 170 31 186 0 15 -26 -51 -33 -85 -3 -12
-14 -39 -25 -61 l-21 -39 0 48 c0 92 -26 142 -125 241 -69 69 -109 100 -173
134 -126 65 -242 102 -344 108 -79 5 -87 8 -97 30 -6 13 -11 26 -11 28 0 3 60
5 133 6 156 1 136 14 -38 25 l-115 7 -19 51 -19 51 26 12 c15 7 32 12 39 13 6
0 34 -30 63 -66 28 -36 54 -63 57 -60 6 6 -17 67 -44 119 l-14 27 50 0 c28 0
51 -4 51 -8 0 -31 237 -247 363 -330 56 -37 56 -36 -35 85 -68 91 -148 219
-148 237 0 10 127 0 230 -20 41 -8 108 -30 148 -49 77 -37 115 -42 155 -24 29
13 57 58 57 91 0 51 -116 198 -156 198 -8 0 -33 9 -55 20 l-40 21 3 72 c3 71
3 72 33 79 17 4 140 5 275 4 207 -3 270 -7 406 -29z m-816 -72 c10 -12 10 -15
-4 -15 -9 0 -16 7 -16 15 0 8 2 15 4 15 2 0 9 -7 16 -15z m-3633 -59 c13 -12
-4 -12 -47 0 l-45 14 43 -4 c24 -3 46 -7 49 -10z m529 -327 c18 -71 18 -186
-2 -262 -8 -33 -33 -94 -54 -136 -42 -82 -120 -203 -120 -186 0 6 34 152 75
324 41 173 75 316 75 319 0 17 13 -13 26 -59z m2368 -41 c25 -32 25 -33 6 -42
-11 -5 -20 -13 -20 -18 0 -10 8 -9 35 1 14 6 24 3 32 -8 19 -25 16 -28 -34
-34 -27 -4 -58 -9 -70 -13 -17 -5 -25 -1 -30 12 -3 11 -11 22 -15 25 -21 14
33 109 62 109 5 0 20 -15 34 -32z m3284 -228 c7 0 12 -14 12 -32 0 -17 -1 -29
-3 -27 -2 2 -20 29 -41 59 -35 50 -36 52 -9 28 16 -16 34 -28 41 -28z m-6618
-57 c0 -9 78 -426 87 -463 5 -24 4 -23 -32 10 -41 39 -181 220 -197 256 -13
28 9 70 80 150 44 50 62 64 62 47z m4001 -174 c66 -47 90 -165 46 -230 -31
-46 -68 -55 -137 -32 -78 26 -103 65 -98 155 4 70 25 108 73 129 30 13 81 3
116 -22z m-491 -164 c19 -23 4 -47 -27 -43 -31 3 -44 35 -21 49 19 13 34 11
48 -6z m-2372 -1257 c24 -11 42 -22 40 -24 -6 -5 -142 38 -153 49 -16 16 65
-2 113 -25z m-1128 -1580 c0 -7 -7 -87 -15 -178 -8 -91 -16 -194 -18 -230 -2
-36 -4 17 -5 117 -2 137 1 182 11 186 10 4 10 7 0 18 -7 7 -13 30 -13 50 0 33
8 46 33 48 4 1 7 -5 7 -11z m820 -787 c0 -723 -1 -789 -16 -795 -9 -4 -19 -4
-22 -1 -8 8 -3 413 9 711 6 149 10 407 7 572 -3 240 -1 302 9 302 10 0 13
-157 13 -789z m5810 282 c-18 -84 -72 -211 -118 -271 -23 -30 -30 -47 -24 -58
7 -12 18 -1 52 50 23 36 45 66 49 66 10 0 3 -178 -16 -399 l-17 -205 -73 -112
c-40 -62 -73 -116 -73 -119 0 -4 19 7 42 24 23 17 43 29 46 27 13 -14 -145
-206 -223 -271 -89 -74 -118 -86 -327 -140 -317 -80 -568 -111 -823 -102 -316
12 -510 66 -626 174 -54 51 -61 79 -27 109 19 17 21 17 15 1 -4 -9 -2 -17 3
-17 6 0 10 6 10 13 0 7 16 44 35 82 19 38 40 94 46 125 7 30 13 56 15 58 1 2
17 -4 36 -14 44 -23 196 -34 317 -22 318 31 593 140 966 383 222 145 390 292
600 525 64 72 118 130 120 130 1 0 -1 -17 -5 -37z m-6651 -941 c1 -260 -2
-391 -9 -387 -7 4 -9 234 -8 663 1 528 3 604 9 387 3 -148 7 -447 8 -663z
m2704 298 c14 -52 28 -102 32 -111 4 -11 0 -18 -14 -22 -12 -3 -22 1 -26 12
-11 26 -35 204 -29 213 9 14 10 11 37 -92z m191 -53 c20 -52 20 -57 2 -57 -8
0 -17 15 -20 36 -4 19 -10 42 -13 50 -3 8 -1 14 5 14 5 0 17 -19 26 -43z
m1811 -47 c14 -6 4 -9 -35 -8 -42 0 -49 2 -30 8 32 10 41 10 65 0z m-4864
-707 c-67 -61 -93 -97 -321 -445 -24 -37 -45 -66 -47 -65 -1 2 16 54 38 117
22 63 53 162 68 220 26 103 28 105 75 141 27 21 94 64 150 98 l101 60 3 -31
c3 -27 -5 -38 -67 -95z"/>
<path d="M1584 5026 c-26 -26 -133 -119 -146 -127 -6 -4 6 -8 26 -11 20 -2 36
0 36 5 0 5 22 7 49 5 l48 -5 6 76 c3 41 5 76 4 76 -1 1 -11 -8 -23 -19z"/>
<path d="M6595 6079 c-229 -30 -436 -131 -559 -271 -41 -46 -86 -131 -86 -161
0 -5 27 15 59 43 46 40 77 57 138 77 68 22 274 73 296 73 4 0 -5 -19 -20 -41
-27 -40 -27 -42 -8 -55 37 -25 45 -35 45 -52 0 -30 -17 -45 -56 -51 -39 -7
-39 -7 -36 -51 3 -58 27 -130 57 -174 l23 -34 -66 -6 c-37 -3 -110 -8 -162
-12 -65 -4 -106 -12 -130 -26 l-35 -19 135 8 c184 11 448 8 545 -6 129 -18
330 -68 385 -96 14 -7 37 -15 52 -19 26 -6 27 -5 17 18 -8 18 -33 31 -105 56
l-94 32 59 58 c68 67 94 130 95 225 0 78 -16 132 -59 196 -20 28 -34 53 -32
55 7 7 85 -19 137 -47 42 -23 64 -43 93 -89 36 -55 39 -65 40 -137 1 -73 -1
-83 -40 -161 -23 -46 -39 -90 -36 -98 17 -44 90 19 156 135 66 114 78 152 79
241 3 170 -102 275 -362 366 -69 24 -91 26 -265 29 -104 2 -221 -1 -260 -6z
m439 -270 c15 -12 40 -44 56 -73 24 -41 30 -63 30 -114 0 -74 -21 -104 -90
-122 -79 -21 -137 10 -176 94 -13 28 -24 67 -24 86 0 110 126 190 204 129z
m-549 -234 c0 -16 -7 -20 -30 -20 -24 0 -31 5 -33 23 -3 21 0 23 30 20 25 -2
33 -8 33 -23z"/>
<path d="M4757 4463 c-23 -23 18 -101 80 -152 78 -65 176 -96 377 -121 73 -9
108 -8 195 5 l106 16 88 -25 c106 -32 135 -32 216 -5 72 24 145 86 156 132 9
33 -5 89 -23 95 -9 3 -10 -8 -6 -42 6 -42 4 -47 -27 -77 -41 -38 -126 -79
-178 -86 -25 -3 -70 5 -141 27 -103 32 -106 32 -197 21 -97 -12 -212 -4 -360
24 -112 22 -197 72 -245 146 -35 54 -32 52 -41 42z"/>
<path d="M5289 3995 c-62 -63 -72 -70 -102 -70 -23 0 -35 -6 -41 -22 -7 -14
-18 -21 -35 -20 -21 2 -27 -3 -31 -28 -4 -24 -10 -30 -30 -30 -17 0 -26 -6
-28 -20 -6 -31 -22 -43 -22 -16 0 32 -24 21 -28 -12 -4 -33 -22 -36 -22 -4 0
20 -5 23 -40 24 -22 1 -40 -2 -40 -8 0 -5 -8 -9 -19 -9 -10 0 -26 -11 -35 -25
-9 -14 -23 -25 -32 -25 -8 0 -17 -6 -20 -14 -4 -12 -12 -13 -32 -5 -20 8 -28
7 -34 -4 -4 -9 -17 -12 -33 -9 -14 2 -25 0 -25 -7 0 -5 -6 -8 -14 -5 -9 4 -18
-6 -27 -30 -14 -38 -29 -31 -29 14 0 14 -4 20 -9 15 -12 -13 -31 -106 -31
-150 0 -29 3 -33 23 -28 12 3 28 13 35 21 14 18 83 42 121 42 13 0 39 11 57
25 39 30 40 30 47 5 4 -17 11 -20 44 -16 21 3 56 11 78 19 22 8 57 17 77 21
21 4 44 16 52 27 8 12 19 18 25 15 6 -4 20 -2 31 4 18 9 20 8 20 -15 0 -34 14
-31 46 10 32 42 61 46 70 8 6 -24 8 -22 24 28 l18 54 1 -47 c1 -43 14 -68 28
-54 8 8 32 337 26 353 -8 21 -38 15 -64 -12z m-432 -267 c-3 -7 -5 -2 -5 12 0
14 2 19 5 13 2 -7 2 -19 0 -25z"/>
<path d="M5443 4003 c-7 -3 -14 -17 -14 -31 -1 -17 -3 -21 -6 -9 -2 9 -8 17
-13 17 -19 0 -53 -195 -44 -255 7 -50 16 -56 32 -22 10 21 11 20 11 -10 1 -32
21 -57 29 -34 3 8 8 6 17 -6 9 -12 17 -15 23 -8 15 15 44 297 32 309 -6 6 -13
0 -19 -15 -9 -22 -10 -21 -10 12 -1 38 -17 60 -38 52z"/>
<path d="M5526 3888 c-8 -26 -24 -232 -19 -241 3 -5 14 -7 24 -4 15 4 19 0 19
-24 0 -27 13 -39 24 -21 2 4 22 7 43 6 21 -1 41 3 46 9 5 9 10 7 18 -5 12 -21
45 -24 52 -5 3 8 1 34 -3 58 -5 24 -12 65 -15 92 -5 38 -10 47 -26 47 -10 0
-19 -6 -19 -12 -1 -7 -9 -3 -19 10 -11 12 -26 22 -35 22 -9 0 -16 8 -16 18 -1
40 -64 82 -74 50z"/>
<path d="M5742 3777 c-9 -10 -5 -39 14 -118 25 -103 36 -129 47 -112 8 13 -27
221 -39 233 -8 8 -14 7 -22 -3z"/>
<path d="M5803 3729 c-13 -13 55 -169 74 -169 19 0 16 18 -16 93 -33 79 -42
92 -58 76z"/>
<path d="M5865 3707 c-7 -17 50 -164 72 -189 20 -23 43 -23 43 -1 0 15 1 15
18 0 19 -18 44 -22 55 -10 9 9 71 8 85 -1 18 -11 34 3 27 23 -3 11 2 24 11 32
15 12 19 11 32 -9 17 -26 36 -28 76 -7 15 8 35 15 44 15 8 0 24 8 35 18 13 12
36 17 73 17 29 0 53 4 53 9 0 5 5 12 12 17 21 13 8 18 -86 35 -68 13 -96 14
-118 6 -25 -9 -34 -7 -68 15 l-38 25 -32 -23 c-22 -16 -34 -19 -37 -11 -10 30
-39 32 -77 3 l-38 -28 -22 25 c-24 28 -45 23 -45 -11 0 -18 -5 -14 -23 17 -24
43 -44 56 -52 33z"/>
<path d="M6545 3604 c-132 -77 -335 -171 -411 -190 -69 -17 -111 -19 -346 -17
-195 2 -294 7 -370 19 -77 13 -169 18 -368 18 -297 2 -312 4 -382 74 -34 33
-38 34 -38 14 0 -22 71 -98 100 -107 8 -3 20 -24 27 -47 6 -24 18 -69 27 -100
9 -31 17 -74 19 -95 3 -50 10 -60 51 -67 20 -4 115 -31 213 -60 303 -92 357
-101 588 -101 187 0 206 2 298 28 103 28 237 79 273 102 12 8 59 87 104 177
76 149 159 278 180 278 5 0 12 9 15 20 4 11 27 36 52 55 58 44 45 44 -32 -1z
m-188 -186 c-10 -18 -25 -55 -35 -83 -15 -45 -23 -53 -72 -77 -78 -38 -165
-56 -317 -64 -193 -10 -167 -26 35 -22 168 4 179 6 297 54 17 7 16 2 -9 -42
-38 -67 -52 -77 -153 -114 -203 -74 -355 -96 -548 -80 -149 12 -217 26 -465
94 -107 30 -207 57 -222 60 -25 6 -28 11 -28 47 0 37 2 40 23 33 103 -33 267
-48 281 -25 4 5 -27 14 -66 20 -107 16 -232 43 -242 52 -9 8 -57 121 -53 125
1 1 29 -2 62 -8 33 -5 120 -7 195 -4 96 5 169 2 255 -9 160 -21 429 -38 595
-38 161 1 273 24 395 82 44 21 82 36 84 35 2 -2 -3 -19 -12 -36z"/>
<path d="M5340 2866 c0 -41 55 -66 144 -66 107 0 169 18 119 34 -49 15 -263
41 -263 32z"/>
<path d="M5291 2797 c-11 -15 3 -146 19 -177 6 -11 19 -20 29 -20 11 0 21 -7
25 -15 6 -18 37 -20 54 -3 9 9 16 8 29 -5 12 -10 23 -13 33 -7 8 5 35 12 62
15 33 5 49 12 53 25 4 13 15 18 36 18 35 -1 54 15 63 54 5 22 1 32 -19 50 -14
12 -25 27 -25 34 0 7 -8 17 -17 23 -22 12 -53 -3 -53 -26 0 -15 -2 -14 -14 2
-8 11 -20 16 -29 12 -9 -3 -19 -2 -22 4 -12 18 -25 -3 -25 -40 0 -54 -13 -60
-25 -10 -10 39 -35 67 -35 39 0 -7 -9 -23 -19 -36 -20 -25 -20 -25 -31 -5 -6
12 -17 21 -24 21 -8 0 -17 11 -20 24 -7 28 -30 40 -45 23z"/>
<path d="M1981 1095 c0 -22 4 -47 9 -55 8 -12 9 -10 9 10 -1 14 -5 39 -9 55
-7 29 -8 29 -9 -10z"/>
<path d="M2270 436 c-6 -9 -10 -21 -8 -28 3 -8 9 -4 17 10 15 28 9 39 -9 18z"/>
</g>
</svg>
